<svg xmlns="http://www.w3.org/2000/svg" width="106" height="84"><path fill="#EDEDED" fill-opacity=".785" d="M.836 83.591c6.543-.417 12.775-1.957 18.695-4.62 5.92-2.662 11.086-6.212 15.5-10.649 4.414-4.437 7.945-9.63 10.594-15.582 2.648-5.95 3.972-12.476 3.972-19.575 0-4.49-.7-8.692-2.103-12.607-1.402-3.915-3.35-7.36-5.842-10.336-2.492-2.975-5.4-5.324-8.724-7.047C29.605 1.453 26.022.591 22.178.591c-3.01 0-5.79.47-8.334 1.41-2.544.94-4.803 2.244-6.776 3.915a17.414 17.414 0 0 0-4.596 6.029c-1.09 2.35-1.636 4.88-1.636 7.595 0 2.506.416 4.829 1.247 6.97.83 2.14 1.947 4.019 3.349 5.637 1.402 1.618 3.038 2.871 4.907 3.758a13.637 13.637 0 0 0 5.92 1.332c1.973 0 3.557-.261 4.752-.783a20.412 20.412 0 0 0 3.193-1.723c.935-.627 1.818-1.2 2.649-1.723.83-.522 1.869-.783 3.115-.783 1.454 0 2.649.862 3.583 2.584.935 1.723 1.402 3.733 1.402 6.03 0 3.862-.882 7.62-2.648 11.275-1.766 3.654-4.206 7.073-7.322 10.257-3.116 3.185-6.75 5.977-10.905 8.379A59.533 59.533 0 0 1 .836 76.387v7.204zm56.24 0c6.542-.417 12.774-1.957 18.693-4.62 5.92-2.662 11.113-6.212 15.58-10.649 4.465-4.437 7.996-9.63 10.593-15.582 2.596-5.95 3.894-12.476 3.894-19.575 0-4.49-.7-8.692-2.103-12.607-1.402-3.915-3.323-7.36-5.764-10.336-2.44-2.975-5.323-5.324-8.646-7.047C85.999 1.453 82.416.591 78.573.591c-3.011 0-5.815.47-8.412 1.41-2.596.94-4.855 2.244-6.777 3.915-1.92 1.67-3.453 3.68-4.595 6.029-1.143 2.35-1.714 4.88-1.714 7.595 0 2.506.416 4.829 1.246 6.97.831 2.14 1.948 4.019 3.35 5.637 1.402 1.618 3.038 2.871 4.907 3.758 1.87.888 3.895 1.332 6.076 1.332 1.973 0 3.557-.261 4.751-.783A20.412 20.412 0 0 0 80.6 34.73c.935-.627 1.817-1.2 2.648-1.723.831-.522 1.87-.783 3.116-.783 1.454 0 2.622.862 3.505 2.584.883 1.723 1.324 3.733 1.324 6.03 0 3.862-.882 7.62-2.648 11.275-1.766 3.654-4.18 7.073-7.244 10.257-3.064 3.185-6.673 5.977-10.827 8.379-4.155 2.401-8.62 4.28-13.398 5.637v7.204z"/></svg>