<svg xmlns="http://www.w3.org/2000/svg" xmlns:xlink="http://www.w3.org/1999/xlink" viewBox="0 0 103 84"><defs><path d="M51.755 83.27c12.889 0 23.632-6.636 33.864-15.608C93.83 60.462 103 52.098 103 41.893 103 18.973 74.988.27 51.755.27c-19.292 0-33.96 10.19-41.365 22.046C6.44 28.638 0 41.338 0 49.309c0 22.92 28.522 33.96 51.755 33.96z" id="a"/><path id="c" d="M.302.205h8.255V27.73H.302z"/><path d="M4.963 2.95c2.294.044 2.656-.33 2.858-.477.225-.166 1.493-1.417 1.493-1.417-.899.277-3.485.323-4.136.301C1.894 1.244.06.325.06.325.827 1.89 2.193 2.893 4.963 2.949z" id="e"/></defs><g fill="none" fillRule="evenodd"><mask id="b" fill="#fff"><use xlink:href="#a"/></mask><use fill="#EDEDED" xlink:href="#a"/><g mask="url(#b)"><path d="M59.194 47.132s1.742 13.666 2.126 15.339c.052.22.185.7.185.7s-2.236 2.13-6.129.864c-.012-.004-.027.03-.027.03l-3.154-15.177" fill="#CF916C"/><g transform="translate(54.515 61.666)"><mask id="d" fill="#fff"><use xlink:href="#c"/></mask><path d="M3.035 26.064C3.582 22.542 1.6 11.89.675 8.118c-.934-3.815.182-5.924.182-5.924l-.029-.102c.01-.01.017-.021.026-.031C2.109.448 4.899-.47 6.728.805c.571 1.582 1.475 3.694 1.73 5.6.494 3.71-1.006 17.98-1.06 18.506-.02.194.028.796.098 1.586-1.527 1.985-3.555 1.377-4.46-.433" fill="#CF916C" mask="url(#d)"/></g><path d="M52.978 50.38c.304.02.606.053.905.101a9.618 9.618 0 01-.905-.101" fill="#33211E"/><path d="M28.871 89.482c2.352-1.007 2.354-5.626.674-7.641-1.343-1.495-4.364-3.286-6.737-3.19-3.634 1.568-5.513 6.192-5.513 6.192s-1.152-1.752-3.358-6.885c-2.744-6.382-3.695-9.74-3.695-9.74s4.954-8.146 8.9-14.778a5.166 5.166 0 011.662-1.535c-.124-4.07-.938-9.211-3.95-11.562-1.005.735-1.922 1.8-2.581 3.358-.48 1.13-.331 2.624-1.512 5.036C8.487 55.28 3.19 66.453 3.19 69.73c0 4.422 5.99 10.58 12.091 18.136 1.186.238 2.218.251 2.984.2.298-.05.6-.082.905-.103.305-.05.477-.097.477-.097l-.057.076c2.576-.084 4.07 2.263 6.696 1.455l2.586.086z" fill="#CF916C"/><path d="M53.964 52.29c-1.319-2.617-2.574-5.082-3.015-7.952 0 2.845-.262 5.954.48 8.74l.029-.593c.857-.006 1.7-.08 2.506-.195" fill="#279F78"/><path d="M48.7 34.799c.77 0 1.48.04 2.135.109.398.042.776.094 1.133.155 0 0 .165.01.446.046l.203.029c1.682.256 6.079 1.357 6.502 5.874.132 1.412.28 2.71.428 3.862l.057.431c.168 1.275.333 2.352.47 3.184.202 1.23.343 1.928.343 1.928s-2.858 1.358-6.453 1.873c-1.319-2.617-2.574-5.082-3.015-7.952 0 2.612-.219 5.446.32 8.05.047.232.1.463.16.69-.063 1.325-.13 2.659-.223 4.002-.052.735-.11 1.47-.183 2.21-.16.978-.424 2.183-.699 3.434A149.63 149.63 0 0049.838 65c-.213 1.043-.393 2.042-.48 2.885-.26 2.471.16 7.535.785 12.674l.142 1.142c.63 4.945 1.42 9.786 1.951 12.275-10.017 2.91-21.557 2.828-30.677-2.035 1.253-.061 2.498-.218 3.71-.564 1.921-.72 4.081-1.681 4.8-3.84.394-1.576.624-3.311-.366-4.547a4.006 4.006 0 00-.82-1.674c-1.605-1.604-3.847-2.778-6.22-2.684l.006-.003c2.105-5.61 1.51-8.628 1.51-11.62 0-.485-.089-1.106-.234-1.821-.07-.339-.149-.697-.239-1.075-.67-2.797-1.842-6.567-2.119-9.75l-.904 1.54c-3.698-.439-6.04-1.68-7.509-2.944a9.236 9.236 0 01-.833-.811c-1.21-1.343-1.51-2.515-1.51-2.515 1.062-1.307 2.406-3.865 3.056-5.153l.132-.264c.16-.321.253-.515.253-.515.625-1.544 1.53-2.697 2.546-3.429-.01-.007.154-.114.146-.121.836-.611 1.622-.8 2.484-1.045 1.036-.316 1.793-.354 1.793-.354.33-.04.642-.07.924-.09.837-.065 2.136-.647 3.689-1.341l.524-.234c1.067-.474 2.236-.977 3.446-1.39 3.405.06 7.333.285 10.49-.89 2.846.674 8.385-.008 8.385-.008z" fill="#6C78A9"/><path d="M31.256 27.07s.106.885.157 2.143c.028.664.04 1.43.012 2.225-.067 1.978-.374 4.132-1.284 5.308 0 0 7.107 6.072 12.087.287 0 0-.562-1.97-.584-2.85-.005-.203.026-.413.042-.63.099-1.352.266-2.972.542-4.806-.929.252-9.49.026-10.972-1.677" fill="#CF916C"/><path d="M40.313 33.848c.484-.038.94-.14 1.373-.294.1-1.353.265-2.973.542-4.807-.93.252-9.489.025-10.972-1.677 0 0 .106.885.157 2.144 1.986 2.942 5.243 4.978 8.9 4.634" fill="#221F1F" opacity=".2"/><path d="M50.085 20.163c-.335 2.342-2.468 4.982-4.085 3.731 0-.228.007-.45.019-.668.64-1.636 1.323-3.218 2.579-4.057.525-.404 1.152.176 1.487.994z" fill="#F6BE8A"/><path d="M49.95 26.448c-1.137-3.515 1.338-9.093.95-13.452a14.248 14.248 0 00-.045-.477l-.021-.179a22.047 22.047 0 00-.117-.83l-.002-.017c-.189-1.181-.46-2.366-.66-3.42-.652-3.437-3.006-3.923-3.006-3.923s-5.56 2.795-4.203 6.595l-1.779-.17-1.262 14.628s.532 1.227 1.936 2.695c.182-.835.655-2.51 1.068-3.695 0 0-.337 2.904-.234 4.497.866.764 1.345 1.507 2.725 2.182l.812-1.549s-.33 1.325-.037 2.055c.273.12.937-1.992.798-3.03.571 1.88-.341 3.223-.206 3.306 1.124.687.596 2.012.956 2.056.36.044 3.463-3.756 2.326-7.272z" fill="#33211E"/><path d="M48.43 20.463c.57-.337 1.122.315 1.355 1.168-.617 2.284-3.057 4.643-4.51 3.205.028-.226.062-.446.1-.661.836-1.545 1.707-3.032 3.055-3.712" fill="#B67853"/><path d="M48.43 20.463c-1.348.68-2.22 2.167-3.054 3.712.4-2.239 1.308-3.807 1.308-3.807s1.414-3.362 2.909-1.026c.4.627.418 1.452.192 2.289-.233-.853-.785-1.505-1.355-1.168" fill="#CF916C"/><path d="M25.93 17.809c-.671-.49-1.655-.025-2.27.725.069 2.371 2.626 5.345 5.124 4.388a8.91 8.91 0 00.087-.662c-.621-1.727-1.313-3.407-2.94-4.451" fill="#F6BE8A"/><path d="M25.93 17.809c-.671-.49-1.655-.025-2.27.725.069 2.371 2.626 5.345 5.124 4.388a8.91 8.91 0 00.087-.662c-.621-1.727-1.313-3.407-2.94-4.451" fill="#CF916C"/><path d="M25.93 17.809c1.628 1.044 2.32 2.724 2.941 4.45.215-2.266-.5-4.034-.5-4.034s-.797-3.636-3.66-1.83c-.769.484-1.077 1.27-1.051 2.14.615-.75 1.599-1.216 2.27-.726" fill="#CF916C"/><g><path d="M48.573 17.92c-1.968 8.44-6.158 11.664-12.296 10.383-6.14-1.28-10.032-8.178-8.697-15.405C28.916 5.67 34.977.85 41.115 2.13c6.14 1.28 9.462 7.199 7.458 15.79" fill="#CF916C"/><path d="M38.472 17.182s12.358-4.802 9.71 3.633C44.838 31.469 37.004 32.27 37.004 32.27s-10.543-3.19-9.854-14.35c.73-11.837 11.322-.738 11.322-.738" fill="#CF916C"/><path d="M31.582 15.19a.127.127 0 01-.063-.033c-.051-.049-.048-.126-.004-.18.46-.558 1.57-1.2 2.542-1.207 1.411-.011 2.424.84 2.73 1.567.027.065-.512-1.015-2.021-1.31-.343-.066-1.664-.285-3.067 1.127a.13.13 0 01-.117.036" fill="#7B5533"/><path d="M34.105 14.718c-1.31-.196-2.5.384-2.782 1.317-.021.069-.038.14-.049.211-.04.27-.002.537.098.789.292.736 1.12 1.345 2.169 1.502 1.14.17 2.188-.246 2.628-.972a1.512 1.512 0 00.203-.556c.155-1.054-.86-2.08-2.267-2.29" fill="#FFF"/><path d="M31.94 16.11a1.737 1.737 0 103.474-.093 1.737 1.737 0 10-3.475.093" fill="#452D22"/><path d="M32.508 15.953a1.12 1.12 0 102.24-.06 1.12 1.12 0 00-2.24.06" fill="#010101"/><path d="M33.342 15.944a.392.392 0 11.151-.77.392.392 0 01-.15.77z" fill="#FFF"/><path d="M30.656 16.007s.831-1.804 2.678-1.835c2.941-.05 3.051 2.568 3.051 2.568s-.338-1.971-2.644-2.06c-2.35-.092-2.51 1.785-2.51 1.785l-.575-.458z" fill="#33211E"/><path d="M46.719 18.024a.13.13 0 00.071-.007c.065-.026.092-.098.071-.165-.215-.69-1.001-1.704-1.898-2.076-1.304-.543-2.563-.137-3.12.421-.05.05.857-.746 2.365-.45.344.066 1.65.362 2.417 2.199.017.042.053.07.094.078" fill="#7B5533"/><path d="M44.56 16.636c-1.383-.336-2.71.231-2.963 1.267a1.55 1.55 0 00-.021.59c.132.839.946 1.62 2.068 1.892 1.029.25 2.026-.001 2.574-.573a1.514 1.514 0 00.423-.909c.089-.97-.792-1.955-2.08-2.267" fill="#FFF"/><path d="M44.414 16.367c.709.366 1.605.652 1.605 1.707a1.737 1.737 0 11-1.605-1.707z" fill="#452D22"/><path d="M44.202 16.84a1.12 1.12 0 10.06 2.24 1.12 1.12 0 00-.06-2.24" fill="#010101"/><path d="M44.03 17.146a.392.392 0 10-.15.77.392.392 0 00.15-.77" fill="#FFF"/><path d="M47.269 19.13s-.09-1.985-1.788-2.71c-2.706-1.156-3.795 1.228-3.795 1.228s1.057-1.698 3.226-.912c2.212.803 1.652 2.601 1.652 2.601l.705-.207z" fill="#33211E"/><path d="M42.44 13.713s1.278-.984 1.838-.932c3.411.325 4.342 2.237 4.556 2.687 0 0-1.236-1.453-2.646-1.537l-3.748-.218M38.26 12.228s-1-1.268-1.555-1.353c-3.388-.52-4.756 1.107-5.074 1.49 0 0 1.554-1.107 2.94-.841l3.688.704" fill="#6D492C"/><path d="M41.57 17.925s1.097.994 2.619 1.506c1.523.513 2.27.102 2.27.102l.688.733s.029 1.13-1.822 1.017c-1.85-.113-4.532-2.148-4.663-2.542-.132-.394.909-.816.909-.816M36.393 17.004s-1.39.501-2.995.396c-1.603-.107-2.137-.77-2.137-.77l-.916.416s-.456 1.033 1.298 1.633c1.755.601 5.01-.261 5.28-.575.271-.316-.53-1.1-.53-1.1" fill="#CF916C"/><path d="M38.247 24.014c-.444-.023-1.84-1.779-1.847-2-.007-.22 2.447.076 2.447.076s1.593.525 1.588.635c-.006.11-1.745 1.311-2.188 1.289" fill="#221F1F" opacity=".2"/><path d="M37.155 28.651c1.565.192 3.458-.696 4.442-2.357 0 0-.873-1.009-1.841-1.257-1.157-.296-2.165-.547-3.158-.724-.653-.116-3.463.115-3.463.115s.877 3.81 4.02 4.223" fill="#BD4D34"/><path d="M32.803 24.235s1.708 1.137 4.955 1.649c.643.1 3.215.37 4.142.204 0 0-1.412 1.088-1.656 1.225-.217.123-.623.45-2.894.124-2.742-.392-3.977-1.555-4.547-3.202" fill="#51272F"/><g fill="#452D22"><path d="M39.037.53c-3.883-.385-8.2.304-10.725 2.607-3.327 3.033-6.362 13.336-6.913 15.214-.368 1.252-1.101 2.657-2.2 4.214 1.253 2.059 1.174 1.534 1.17 1.565.202-.93.98-2.464 1.437-3.784 0 0-.704 3.273-.92 5.032.771.98 1.26 1.884 2.666 2.73l.284-2.317s.019 1.391.07 2.6c.288.283 1.007.832 1.33.955-.303-1.652-.17-2.892-.077-3.729.118 1.733.202 2.714.512 4.093.152.054 1.016.718 1.172.767 3.299 1.052 4.56 3.681 4.56 3.681s-.472-7.492-2.343-10.7c-.644-1.102-1.147-2.515-1.45-4.054l-.075-.465c.892 1.185 1.77 1.522 1.77 1.522-1.02-.898-1.034-5.209-1.092-7.1 10.728-.825 15.604-8.32 15.604-8.32-1.595 7.883-6.241 8.78-6.241 8.78 3.314.238 4.768-1.207 6.923-3.748 2.155-2.54 2.328-5.843 2.328-5.843-1.441-1.227-3.443-3.166-7.79-3.7z"/><path d="M46.987 4.563c-.25.462-1.998-.915.067 2.318 1.376 2.155 2.222 4.782 2.538 7.88l.572-2.73.384.275a11.524 11.524 0 00-.747-1.9c-.313-.633-.863-1.898-1.65-3.795-.61-1.673-.997-2.356-1.164-2.048z"/></g><g transform="rotate(7 -179.036 279.955)"><mask id="f" fill="#fff"><use xlink:href="#e"/></mask><path d="M8.652 1.086L.733.543s.31 1.455.381 1.73c0 0 3.226 1.412 7.098.498l.44-1.685z" fill="#FFF" mask="url(#f)"/></g></g></g><g mask="url(#b)"><g transform="translate(30.924 33.703)"><path d="M55.175 42.46c.188.59-.043 3.223 2.172 6.456-.71-.022-2.194-.807-2.454-1.385.5 1.165 2.136 3.425-.028 6.798-.15-2.79-1.008-3-1.166-3.278.23.64.14 1.893-.247 3.178l-7.385-2.406a56.983 56.983 0 01-.065-1.944c-.044-2.606.026-5.213-.006-7.82-.026-2.116-.944-5.648-1.081-7.753.15.062.24 1.001.875 1.574.302.266.724.348 1.103.215 3.229-1.069 6.456-8.923 5.683-11.308-1.204-3.453 1.982-7.897 3.254-8.317.954-.314 1.156.175 2.186.352.679.117 1.322-.602 2.021-.363.819.28.901 1.045 1.545 1.47.727.48.89-.368 1.836.524a3.532 3.532 0 01.954 2.777c-.04 1.167 1.578 1.364 1.164 3.398-.28 1.38-2.494 3.771-3.987 4.003 0 0-4.33 3.908-4.874 8.802-.544 4.895-1.5 5.026-1.5 5.026zM10.666 46.721c.748 1.683 4.113 3.365 5.098 3.365.657 0 1.716-.833 3.177-2.5.018-.845.02-1.687-.02-2.523-.215-4.448-.683-8.876-.687-13.332-2.318-3.009-4.569-7.034-5.278-10.415.02-.143.056-.284.105-.42 1.387-3.324-1.486-7.882-2.712-8.37-.92-.364-1.147.105-2.17.22-.675.075-1.265-.67-1.967-.477-.821.227-.947.976-1.605 1.356-.743.43-.853-.414-1.836.407a3.48 3.48 0 00-1.1 2.675c-.03 1.15-1.633 1.25-1.345 3.274.195 1.372 2.232 3.854 3.687 4.17 1.579.799 2.967 5.71 3.455 9.17a47.114 47.114 0 001.71 7.66l.083.259 1.405 5.481z" fill="#845636" fillRule="nonzero"/><path d="M6.198 23.042c1.849.619 4.601-.917 5.635-2.309 1.347-1.813-1.19-3.357-2.837-3.035-1.564.306-5.81 4.336-2.798 5.344zM2.845 21.754a1.14 1.14 0 001.514-1.435c-.268-.833-2.033-2.34-2.616-1.135-.374.776.3 2.318 1.102 2.57zM5.76 18.437c1.009-.651-.034-2.559-.95-3.055-1.288-.699-1.933 1.349-1.356 2.64.442.985 1.505.932 2.306.415zM8.062 16.99c.676-.24.563-1.264.322-1.77a8.278 8.278 0 00-.647-1.194c-.518-.67-1.319-.222-1.416.517-.043.46-.027.925.05 1.38.202.766.879 1.356 1.691 1.066zM10.33 16.843a1.29 1.29 0 001.153-1.618c-.217-.951-.972-1.822-1.75-1.487-.364.157-.52 1.24-.608 1.644a1.145 1.145 0 001.205 1.46zM59.401 27.376c-1.91.515-4.607-1.207-5.57-2.68-1.256-1.919 1.41-3.33 3.057-2.904 1.567.404 5.626 4.744 2.513 5.584zM62.877 26.273a1.157 1.157 0 01-1.448-1.546c.322-.828 2.202-2.249 2.72-.991.331.808-.444 2.33-1.272 2.537zM60.123 22.736c-.983-.72.189-2.59 1.147-3.039 1.348-.63 1.877 1.484 1.215 2.757-.508.972-1.581.854-2.362.282zM57.878 21.13c-.67-.284-.494-1.314-.22-1.813.21-.409.454-.8.728-1.17.565-.647 1.35-.145 1.404.61a5.4 5.4 0 01-.134 1.395c-.252.764-.972 1.32-1.778.978zM55.589 20.845a1.31 1.31 0 01-1.072-1.71c.278-.95 1.095-1.787 1.864-1.4.36.18.452 1.287.517 1.702a1.162 1.162 0 01-1.31 1.408z" fill="#7B5533" fillRule="nonzero"/><path d="M29.477 3.025c.815.488 1.12 3.232 1.576 4.562-.058.162 1.463.784 1.47.939.012.188.064.37.153.537-.018.352-.032.704-.058 1.055a6.196 6.196 0 00-1.3-.017c-2.852 4.118-6.45 3.616-7.218 3.453.294-.025 1.287-.993-.358-5.554-.992-2.75 3.924-6.06 5.735-4.975z" fill="#E8CCA6" fillRule="nonzero"/><path d="M24.759 6.953c.594.243.786.731 1.217 1.238.48.564.965 1.046 1.726.938.173-.024 1.587-.636 1.59-.625-.336-.968-.118-2.401-1.347-2.922-.803-.34-2.054.677-3.186 1.371z" fill="#866A4A" fillRule="nonzero"/><path d="M26.76 6.039a1.367 1.367 0 00-.302 2.29c.42.396 1.032.51 1.565.291a1.367 1.367 0 00.302-2.292 1.467 1.467 0 00-1.565-.29z" fill="#080000" fillRule="nonzero"/><path d="M39.445 8.755a.437.437 0 01.118.803.652.652 0 01-.566.087.437.437 0 01-.119-.805.652.652 0 01.567-.085z" fill="#FFF" fillRule="nonzero"/><path d="M38.702 4.958c-.999.108-2.432 2.487-3.428 3.514-.01.171-1.754.11-1.825.248-.091.168-.218.314-.372.427-.128.329-.26.656-.38.987.441.132.869.307 1.276.523-.847 4.632 4.8 5.974 5.619 6.143-.277-.144-.846-1.44 2.65-4.924 2.107-2.1-1.323-7.16-3.54-6.918z" fill="#E8CCA6" fillRule="nonzero"/><path d="M38.833 16.052c-2.196-.215-4.034-.844-4.174-3.84l-6.382-1.173c-.355.253-2.25 1.73-3.776 2.336a.488.488 0 01.01.34c-.307.976-2.18 5.899-1.795 6.864.508 1.271 1.925 3.565 1.769 5.713-.189 2.587 1.158 3.152 3.398 3.522 1.974.326 3.75.021 4.752-1.772.052-.094 2.008-4.094 3.625-5.258 2.998-2.157 3.945-3.31 4.29-4.431.49-1.598-.75-2.206-1.717-2.301z" fill="#F4E8D9" fillRule="nonzero"/><path d="M38.5 16.802c-.482-.083-1.84 2.32-2.05 2.62-.826 1.181-1.326 1.62-2.774 2.455l-7.962-1.668c-.99-1.346-1.273-1.949-1.556-3.363-.071-.358-.249-2.533-.971-2.002-1.848 1.358 2.388 7.337 2.26 10.14-.1 2.224.077 2.946 2.325 3.356 2.097.382 3.693-.323 4.317-2.202 1.115-3.354 9.937-8.727 6.412-9.336z" fill="#51272F" fillRule="nonzero"/><path d="M35.596 6.349A5.695 5.695 0 0033.68 8.12s-.187-.474-.54-1.428c-.346 1.653-.906 2.075-.906 2.075.184-1.272 0-2.571-.53-3.742 0 0 .397 1.068-.001.001-5.386 7.046-9.426 8.33-10.374 10.41-.869 1.997-.31 4.31 2.123 5.335.935.394 2.756-.09 2.756-.09s1.346 1.439 5.207 2.412c2.19.551 3.813-1.102 4.21-3.108.5-2.516-2.383-5.779-.03-13.637z" fill="#F4E8D9" fillRule="nonzero"/><path d="M33.53 18.716l-.012.003-.022.001a.355.355 0 01-.091-.007h-.007l.001-.002a.364.364 0 11.149-.713c.06.02.118.044.174.072a.339.339 0 01.157.441l-.01.02a.339.339 0 01-.283.186l-.055-.001zM30.272 20.218a.37.37 0 11-.152.725.37.37 0 01.152-.725zM33.164 21.183a.347.347 0 01-.625-.302c.2-.389.828-.079.625.302zM30.127 14.044c.11-.4-.315-.686-.586-.903-.305-.243-.579-.34.065-.154.57.214.908.034 1.145-.543.253-.616.775-1.08 1.022-4.02-.564 2.69-1.412 3.673-1.518 3.863-.457.817-1.176-.245-1.704.404a.192.192 0 00.017.233c.23.234.812.47.598.47a2.502 2.502 0 00-.99-.04c-.4.15-.751.41-1.013.75a.153.153 0 00.014.182c.255.251.463.165.76.008.488-.258.367-.443 1.106-.292.282.058.538.174.825.223a.26.26 0 00.26-.18zM21.774 16.84l.01.007.017.009c.024.012.05.02.076.026l.006.002v-.001a.321.321 0 00.132-.629 1.113 1.113 0 00-.166-.004.299.299 0 00-.284.301v.02a.299.299 0 00.164.25l.045.019zM23.688 19.09a.327.327 0 10-.134.64.327.327 0 00.134-.64zM21.626 18.512a.306.306 0 00.613-.023c-.025-.385-.642-.357-.613.023z" fill="#D1AF86" fillRule="nonzero"/><path d="M32.067 16.892c.25-1.345-1.627-2.82-4.192-3.297-2.565-.476-4.846.228-5.096 1.573-.25 1.344 2.205 4.68 3.885 5.038 1.745.372 5.153-1.97 5.403-3.314z" fill="#000" fillRule="nonzero"/><ellipse fill="#FFF" fillRule="nonzero" opacity=".5" transform="rotate(-59.198 29.111 15.665)" cx="29.111" cy="15.665" rx="1" ry="1.608"/><path d="M41.571 10.133c-.747.055-1.152.538-1.84.976-.693.44-1.161.623-2.006.32-.584-.208-1.623-1.177-1.63-1.167.569-.922.447-2.066 2.009-2.312a2.364 2.364 0 012.133.785c.36.54.812 1.013 1.334 1.398z" fill="#866A4A" fillRule="nonzero"/><path d="M39.168 8.557a1.263 1.263 0 01.173 2.281 1.9 1.9 0 01-1.815.15 1.263 1.263 0 01-.173-2.283 1.899 1.899 0 011.815-.148z" fill="#080000" fillRule="nonzero"/><path d="M39.229 8.836a.437.437 0 01.062.809.652.652 0 01-.57.048.437.437 0 01-.064-.811.652.652 0 01.572-.046z" fill="#FFF" fillRule="nonzero"/><path d="M31.285 24.034c.019-1.259-.993-2.021-1.847-2.761a1.82 1.82 0 01-.717-1.394c.013-.646.352-1.249.531-1.857a2.36 2.36 0 00-1.547-2.955 3.726 3.726 0 00-3.239.41 4.241 4.241 0 00-1.855 2.73c-.562 2.504.858 4.902 2.569 6.605.4.473.872.879 1.4 1.202.51.214 1.096.129 1.523-.221.145-.134.3-.258.463-.37.112-.054.111-.024.301.047.164.063.334.11.506.143 1.003.3 1.897-.581 1.912-1.58z" fill="#E3787C" fillRule="nonzero"/><path d="M31.095 24.796a2.194 2.194 0 00-.028-.321 1.748 1.748 0 01-.084-.218c-.042-.055-.244-.306-.167-.236a4.852 4.852 0 00-.291-.257c-.16-.134-.026-.034-.173-.123a4.61 4.61 0 00-.204-.117c-.188-.1-.382-.184-.575-.273a5.2 5.2 0 01-.956-.562c-1.295-.975-1.036-2.471-.666-3.833.106-.378.192-.76.258-1.147.06-.307.07-.62.034-.931a1.67 1.67 0 00-.844-1.219 4.206 4.206 0 00-.585-.269l-.083-.026a4.573 4.573 0 00-.72-.147 1.232 1.232 0 00-.376-.019c-.17.004-.34.02-.509.046a4.089 4.089 0 00-2.515 3.063c-.562 2.504.858 4.902 2.569 6.605.4.473.872.879 1.4 1.202.51.214 1.096.129 1.523-.221.145-.134.3-.258.463-.37.112-.054.111-.024.301.047.164.063.334.11.506.143a1.462 1.462 0 001.722-.817z" fill="#B54A4E" fillRule="nonzero"/><path d="M28.541 6.94a.4.4 0 01-.581.459.595.595 0 01-.328-.408.4.4 0 01.583-.46c.166.078.286.23.326.408z" fill="#FFF" fillRule="nonzero"/><path d="M41.748 3.317c.586 1.328 2.844 7.495.345 17.189-.713 2.765.344 10.37 3.41 7.402 2.087-2.02 6.742-4.568 5.565-7.548-3.036-7.686.13-8.904-2.725-11.923a24.566 24.566 0 00-6.595-5.12z" fill="#E1A669" fillRule="nonzero"/><path d="M44.58 25.07c-2.156-1.969 3.794-10.452 1.524-16.616a9.67 9.67 0 00-2.277-3.333c-.603-.523-1.22-1.014-1.77-1.583-.278-.115-.434-.109-.323.145.586 1.328 2.858 7.129.359 16.823-.713 2.765.344 10.37 3.41 7.402.864-.837 2.17-1.764 3.319-2.776-.13.028-2.22 1.784-4.241-.061z" fill="#C38B53" fillRule="nonzero"/><path d="M24.125 2.095c-3.888 1.465-1.575 3.946-7.67 9.528-2.361 2.164.71 6.493 1.702 9.223 1.458 4.01 5.737-2.366 6.306-5.164 1.995-9.81 6.724-14.366 7.832-15.304a24.566 24.566 0 00-8.17 1.717z" fill="#E1A669" fillRule="nonzero"/><path d="M20.228 18.698c2.801-.827 1.164-11.06 5.903-15.607a9.67 9.67 0 013.506-2.001c.77-.207 1.54-.378 2.283-.65.3.02.439.094.227.273-1.107.938-5.689 5.16-7.684 14.97-.57 2.797-4.848 9.174-6.306 5.163-.411-1.131-1.179-2.537-1.77-3.949.105.082 1.216 2.576 3.84 1.801z" fill="#C38B53" fillRule="nonzero"/><path d="M45.26 9.728c.18 2.086-2.197 9.951-3.774 11.985-1.573 2.028-3.702 2.494-6.302 5.62-1.07 1.287-3.419 4.65-6.392 3.954-3.648-.855-4.377-3.016-4.722-4.508-.374-1.615-.487-3.282-1.1-4.834-.726-1.833-1.466-3.392-1.82-5.348-.613-3.39 1.706-10.433 2.448-12 1.06-2.24 4.578-4.258 7.442-4.23 1.393.013 3-.173 4.636.156 1.637.328 3.305 1.17 5.086 2.084 2.186 1.122 4.317 5.034 4.497 7.12z" fill="#E8D6B8" fillRule="nonzero"/><path d="M23.64 13.154c.888-.987 5.62-4.242 5.917-4.476a12.31 12.31 0 00.005-2.148c-.134-1.02-.443-2.647-1.556-2.48-.719.11-3.789 1.234-4.808 4.168-.192.552.176 1.554.354 2.035a4.87 4.87 0 01.088 2.9zM35.85 7.979c.666-.835 1.686-2.369 2.903-1.664.787.455 3.992 1.987 3.695 6.34-.066.975-.983 1.286-1.431 1.622a3.97 3.97 0 00-1.578 3.607c-2.484-.572-6.55-2.724-5.559-6.424a10.102 10.102 0 011.97-3.481z" fill="#D6B083" fillRule="nonzero" opacity=".3"/><path d="M24.902 7.019c.558.248.725.742 1.12 1.256.437.572.883 1.062 1.612.959.166-.024 1.532-.632 1.535-.62-.289-.98-.034-2.425-1.188-2.959-.754-.348-1.978.67-3.079 1.364z" fill="#715638" fillRule="nonzero"/><path d="M26.877 5.94a1.433 1.433 0 00-.362 2.31c.382.402.973.523 1.481.304a1.433 1.433 0 00.362-2.31 1.322 1.322 0 00-1.48-.303z" fill="#080000" fillRule="nonzero"/><path d="M27.978 6.648a.364.364 0 00-.096.608.335.335 0 00.345.071.364.364 0 00.096-.608.335.335 0 00-.345-.07z" fill="#FFF" fillRule="nonzero"/><path d="M38.568 17.136c-1.672-.029-2.546-.127-4.382-3.093l-5.287-2.613a42.678 42.678 0 01-4.428 1.955c.042.11.044.232.004.344-.331.982-2.327 5.926-1.956 6.91.488 1.297 1.421 5.695 1.43 5.803.158 2.073 1.64 3.192 3.612 3.646 1.973.455 3.795.098 4.844-1.697.055-.094 2.699-3.786 3.825-4.592 3.04-2.177 4.027-3.8 4.254-4.79.288-1.254-.812-1.854-1.916-1.873z" fill="#D6B083" fillRule="nonzero"/><path d="M38.184 18.318c-.489-.755-1.525 1.128-1.743 1.427-.86 1.179-1.375 1.613-2.857 2.429l-8.024-1.85c-.975-1.381-1.248-1.997-1.506-3.434-.065-.363-.2-2.568-.943-2.045-1.897 1.337 1.92 7.471 2.084 10.306.117 2.04.355 3.253 2.609 3.772 2.254.52 2.928-.516 3.996-2.25 1.679-2.723 7.655-6.392 6.384-8.355z" fill="#51272F" fillRule="nonzero"/><path d="M34.65 14.69c-1.076-1.662-2.351-2.476-5.002-3.24-1.962-.566-3.31-.61-4.501.4-.96.815-3.377 2.414-3.926 3.558-.92 2.003-.402 4.356 2.04 5.441.938.417 2.79-.034 2.79-.034s1.333 1.482 5.221 2.544c2.205.603 3.88-1.038 4.324-3.059.285-1.302.13-3.95-.946-5.61z" fill="#D6B083" fillRule="nonzero"/><path d="M28.83 17.484a20.154 20.154 0 00-2.449-.828c-.522-.153-1.049-.299-1.582-.41-.125-.026-.55-.108-.75-.134.007 1.265-.318 3.832-1.442 4.388.21.133.428.25.654.35.938.416 2.79-.035 2.79-.035s1.333 1.482 5.221 2.544c.127.035.256.063.386.084-1.917-1.406-3.332-3.505-2.828-5.96z" fill="#A57B58" fillRule="nonzero"/><path d="M23.776 23.267c.366-.52.823-.969 1.35-1.324 1.218-.648 1.829.818 2.691 1.347.5.307 2.12.209 2.893.967.187.179.3.42.32.677.011.47-.41.964-.647 1.342a5.561 5.561 0 00-.876 1.97 9.393 9.393 0 00-.047 1.438 5.086 5.086 0 01-.39 1.153 4.43 4.43 0 01-1.344 1.493c-1.425.948-3.393.932-4.932.332a4.51 4.51 0 01-2.2-1.953c-.792-1.328-.57-3.28.315-4.603.66-.984 1.83-1.394 2.867-2.84z" fill="#E3787C" fillRule="nonzero"/><path d="M24.092 29.856c-.114.198-.24.394-.369.592.3-1.147.7-2.265 1.196-3.341.696-1.47 1.781-3.964-.272-4.751l-.048-.016c.155-.151.329-.281.518-.386 1.218-.65 1.832.814 2.695 1.34.501.306 2.12.204 2.896.96.187.179.301.42.321.676-.013.265-.1.52-.248.739-1.344-.957-3.507-.335-4.716 1.067a19.876 19.876 0 00-1.973 3.12z" fill="#B54A4E" fillRule="nonzero"/><path d="M41.396 10.041c-.753.092-1.138.6-1.812 1.078-.679.48-1.143.686-2.012.423-.601-.183-1.7-1.11-1.707-1.1.531-.96.352-2.111 1.918-2.437.801-.16 1.63.1 2.195.689.391.528.87.984 1.418 1.347z" fill="#715638" fillRule="nonzero"/><path d="M39.259 8.515c.95.632.826 1.852-.241 2.37a1.979 1.979 0 01-1.893-.106c-.952-.632-.827-1.854.241-2.371a1.978 1.978 0 011.893.107z" fill="#080000" fillRule="nonzero"/><path d="M39.147 8.953a.338.338 0 01-.063.624.503.503 0 01-.441-.024.338.338 0 01.062-.625.504.504 0 01.442.025z" fill="#FFF" fillRule="nonzero"/><path d="M30.875 10.224a1.26 1.26 0 00-.325-.22c.04-.006.08-.014.12-.024.297-.062.556-.242.716-.5.143-.335.164-.711.057-1.06-.146-.94.613-2.586.613-2.586s-1.173 1.3-1.358 1.865c-.203.623.089.638-.138 1.15-.298.673-1.201.13-1.369.863a.866.866 0 00.2.727c.106.127.911.526.607.661-.208.093-1.243-.788-3.747.12-.586.212 1.475 1.394 1.956.992.821-.687 1.762.792 2.786-.298a1.277 1.277 0 00-.118-1.69z" fill="#D6B083" fillRule="nonzero"/><path d="M30.842 17.14c.305-1.17-1.259-2.59-3.492-3.17-2.232-.581-4.29-.103-4.594 1.068-.304 1.17 1.652 4.267 3.112 4.688 1.516.438 4.67-1.415 4.974-2.586z" fill="#33151D" fillRule="nonzero"/><ellipse fill="#FFF" fillRule="nonzero" opacity=".5" transform="rotate(-60.941 28.091 15.87)" cx="28.091" cy="15.869" rx="1" ry="1.367"/><path d="M48.846 41.803c.535 2.394-2.476 6.88-2.476 6.88-.507.006-1.037.956-1.59 2.851-.832 2.843-.71 5.915-1.041 6.157-8.955 6.552-14.796 3.868-17.589 2.776-4.86-1.902-9.583-10.313-14.166-25.233a15.65 15.65 0 014.917-4.773 7.431 7.431 0 002.406-2.604 14.348 14.348 0 002.04-6.53c.22-3.171 1.357-8.49 1.34-8.91.872-4.634 3.629-5.58 3.629-5.58l18.463 5.58c-.077 3.16-2.883 5.697-1.775 12.198.188 1.101 1.922 5.615 2.311 6.662.985 2.652 3.022 8.25 3.53 10.526z" fill="#845636" fillRule="nonzero"/><path d="M22.249 27.917c-1.198 1.034-3.43 3.158-2.94 6.969.49 3.811 1.688 5.771 2.885 7.404.984 1.342 3.254 2.28 5.12 1.516A3.22 3.22 0 0028.8 42.5c1.343-2.163 3.457-5.61 5.753-6.309 2.505-.762 4.955-5.008 4.465-8.22-.49-3.213-3.049-6.589-3.049-6.589L24.59 25.195l-2.341 2.722z" fill="#000" fillRule="nonzero" opacity=".3"/><path d="M41.217 11.34c.245 1.904.922 8.026.593 11.116-1.362 1.916-4.073 3.017-6.333 5.98-1.506 1.776-2.17.912-5.438-.476-2.25-.07-4.25-.347-4.622-1.7-.404-1.464.002.297-.62-1.1a24.158 24.158 0 01-1.445-4.874c-.691-3.079.735-9.568 1.354-11.032.884-2.09 4.027-4.073 6.65-4.158 1.275-.041 2.739-.273 4.25-.035 1.51.237 3.07.944 4.736 1.712 2.044.943.63 2.664.875 4.567z" fill="#33151D" fillRule="nonzero" opacity=".2"/><path d="M6.198 23.042c1.849.619 4.601-.917 5.635-2.309 1.347-1.813-1.19-3.357-2.837-3.035-1.564.306-5.81 4.336-2.798 5.344zM2.845 21.754a1.14 1.14 0 001.514-1.435c-.268-.833-2.033-2.34-2.616-1.135-.374.776.3 2.318 1.102 2.57zM5.76 18.437c1.009-.651-.034-2.559-.95-3.055-1.288-.699-1.933 1.349-1.356 2.64.442.985 1.505.932 2.306.415zM8.062 16.99c.676-.24.563-1.264.322-1.77a8.278 8.278 0 00-.647-1.194c-.518-.67-1.319-.222-1.416.517-.043.46-.027.925.05 1.38.202.766.879 1.356 1.691 1.066zM10.33 16.843a1.29 1.29 0 001.153-1.618c-.217-.951-.972-1.822-1.75-1.487-.364.157-.52 1.24-.608 1.644a1.145 1.145 0 001.205 1.46zM59.401 27.376c-1.91.515-4.607-1.207-5.57-2.68-1.256-1.919 1.41-3.33 3.057-2.904 1.567.404 5.626 4.744 2.513 5.584zM62.877 26.273a1.157 1.157 0 01-1.448-1.546c.322-.828 2.202-2.249 2.72-.991.331.808-.444 2.33-1.272 2.537zM60.123 22.736c-.983-.72.189-2.59 1.147-3.039 1.348-.63 1.877 1.484 1.215 2.757-.508.972-1.581.854-2.362.282zM57.878 21.13c-.67-.284-.494-1.314-.22-1.813.21-.409.454-.8.728-1.17.565-.647 1.35-.145 1.404.61a5.4 5.4 0 01-.134 1.395c-.252.764-.972 1.32-1.778.978zM55.589 20.845a1.31 1.31 0 01-1.072-1.71c.278-.95 1.095-1.787 1.864-1.4.36.18.452 1.287.517 1.702a1.162 1.162 0 01-1.31 1.408z" fill="#452D22" fillRule="nonzero"/><path d="M29.477 3.025c.815.488 1.12 3.232 1.576 4.562-.058.162 1.463.784 1.47.939.012.188.064.37.153.537-.018.352-.032.704-.058 1.055a6.196 6.196 0 00-1.3-.017c-2.852 4.118-6.45 3.616-7.218 3.453.294-.025 1.287-.993-.358-5.554-.992-2.75 3.924-6.06 5.735-4.975z" fill="#E8CCA6" fillRule="nonzero"/><path d="M24.759 6.953c.594.243.786.731 1.217 1.238.48.564.965 1.046 1.726.938.173-.024 1.587-.636 1.59-.625-.336-.968-.118-2.401-1.347-2.922-.803-.34-2.054.677-3.186 1.371z" fill="#866A4A" fillRule="nonzero"/><path d="M26.76 6.039a1.367 1.367 0 00-.302 2.29c.42.396 1.032.51 1.565.291a1.367 1.367 0 00.302-2.292 1.467 1.467 0 00-1.565-.29z" fill="#080000" fillRule="nonzero"/><path d="M39.445 8.755a.437.437 0 01.118.803.652.652 0 01-.566.087.437.437 0 01-.119-.805.652.652 0 01.567-.085z" fill="#FFF" fillRule="nonzero"/><path d="M38.702 4.958c-.999.108-2.432 2.487-3.428 3.514-.01.171-1.754.11-1.825.248-.091.168-.218.314-.372.427-.128.329-.26.656-.38.987.441.132.869.307 1.276.523-.847 4.632 4.8 5.974 5.619 6.143-.277-.144-.846-1.44 2.65-4.924 2.107-2.1-1.323-7.16-3.54-6.918z" fill="#E8CCA6" fillRule="nonzero"/><path d="M35.596 6.349A5.695 5.695 0 0033.68 8.12s-.187-.474-.54-1.428c-.346 1.653-.906 2.075-.906 2.075.184-1.272 0-2.571-.53-3.742 0 0 .397 1.068-.001.001-5.386 7.046-9.426 8.33-10.374 10.41-.869 1.997-.31 4.31 2.123 5.335.935.394 2.756-.09 2.756-.09s1.346 1.439 5.207 2.412c2.19.551 3.813-1.102 4.21-3.108.5-2.516-2.383-5.779-.03-13.637z" fill="#F4E8D9" fillRule="nonzero"/><path d="M33.53 18.716l-.012.003-.022.001a.355.355 0 01-.091-.007h-.007l.001-.002a.364.364 0 11.149-.713c.06.02.118.044.174.072a.339.339 0 01.157.441l-.01.02a.339.339 0 01-.283.186l-.055-.001zM30.272 20.218a.37.37 0 11-.152.725.37.37 0 01.152-.725zM33.164 21.183a.347.347 0 01-.625-.302c.2-.389.828-.079.625.302zM30.127 14.044c.11-.4-.315-.686-.586-.903-.305-.243-.579-.34.065-.154.57.214.908.034 1.145-.543.253-.616.775-1.08 1.022-4.02-.564 2.69-1.412 3.673-1.518 3.863-.457.817-1.176-.245-1.704.404a.192.192 0 00.017.233c.23.234.812.47.598.47a2.502 2.502 0 00-.99-.04c-.4.15-.751.41-1.013.75a.153.153 0 00.014.182c.255.251.463.165.76.008.488-.258.367-.443 1.106-.292.282.058.538.174.825.223a.26.26 0 00.26-.18zM21.774 16.84l.01.007.017.009c.024.012.05.02.076.026l.006.002v-.001a.321.321 0 00.132-.629 1.113 1.113 0 00-.166-.004.299.299 0 00-.284.301v.02a.299.299 0 00.164.25l.045.019zM23.688 19.09a.327.327 0 10-.134.64.327.327 0 00.134-.64zM21.626 18.512a.306.306 0 00.613-.023c-.025-.385-.642-.357-.613.023z" fill="#D1AF86" fillRule="nonzero"/><path d="M32.067 16.892c.25-1.345-1.627-2.82-4.192-3.297-2.565-.476-4.846.228-5.096 1.573-.25 1.344 2.205 4.68 3.885 5.038 1.745.372 5.153-1.97 5.403-3.314z" fill="#000" fillRule="nonzero"/><ellipse fill="#FFF" fillRule="nonzero" opacity=".5" transform="rotate(-59.198 29.111 15.665)" cx="29.111" cy="15.665" rx="1" ry="1.608"/><path d="M41.571 10.133c-.747.055-1.152.538-1.84.976-.693.44-1.161.623-2.006.32-.584-.208-1.623-1.177-1.63-1.167.569-.922.447-2.066 2.009-2.312a2.364 2.364 0 012.133.785c.36.54.812 1.013 1.334 1.398z" fill="#866A4A" fillRule="nonzero"/><path d="M39.168 8.557a1.263 1.263 0 01.173 2.281 1.9 1.9 0 01-1.815.15 1.263 1.263 0 01-.173-2.283 1.899 1.899 0 011.815-.148z" fill="#080000" fillRule="nonzero"/><path d="M39.229 8.836a.437.437 0 01.062.809.652.652 0 01-.57.048.437.437 0 01-.064-.811.652.652 0 01.572-.046z" fill="#FFF" fillRule="nonzero"/><path d="M31.285 24.034c.019-1.259-.993-2.021-1.847-2.761a1.82 1.82 0 01-.717-1.394c.013-.646.352-1.249.531-1.857a2.36 2.36 0 00-1.547-2.955 3.726 3.726 0 00-3.239.41 4.241 4.241 0 00-1.855 2.73c-.562 2.504.858 4.902 2.569 6.605.4.473.872.879 1.4 1.202.51.214 1.096.129 1.523-.221.145-.134.3-.258.463-.37.112-.054.111-.024.301.047.164.063.334.11.506.143 1.003.3 1.897-.581 1.912-1.58z" fill="#E3787C" fillRule="nonzero"/><path d="M31.095 24.796a2.194 2.194 0 00-.028-.321 1.748 1.748 0 01-.084-.218c-.042-.055-.244-.306-.167-.236a4.852 4.852 0 00-.291-.257c-.16-.134-.026-.034-.173-.123a4.61 4.61 0 00-.204-.117c-.188-.1-.382-.184-.575-.273a5.2 5.2 0 01-.956-.562c-1.295-.975-1.036-2.471-.666-3.833.106-.378.192-.76.258-1.147.06-.307.07-.62.034-.931a1.67 1.67 0 00-.844-1.219 4.206 4.206 0 00-.585-.269l-.083-.026a4.573 4.573 0 00-.72-.147 1.232 1.232 0 00-.376-.019c-.17.004-.34.02-.509.046a4.089 4.089 0 00-2.515 3.063c-.562 2.504.858 4.902 2.569 6.605.4.473.872.879 1.4 1.202.51.214 1.096.129 1.523-.221.145-.134.3-.258.463-.37.112-.054.111-.024.301.047.164.063.334.11.506.143a1.462 1.462 0 001.722-.817z" fill="#B54A4E" fillRule="nonzero"/><path d="M28.541 6.94a.4.4 0 01-.581.459.595.595 0 01-.328-.408.4.4 0 01.583-.46c.166.078.286.23.326.408z" fill="#FFF" fillRule="nonzero"/><path d="M41.748 3.317c.586 1.328 2.844 7.495.345 17.189-.713 2.765.344 10.37 3.41 7.402 2.087-2.02 6.742-4.568 5.565-7.548-3.036-7.686.13-8.904-2.725-11.923a24.566 24.566 0 00-6.595-5.12z" fill="#452D22" fillRule="nonzero"/><path d="M44.58 25.07c-2.156-1.969 3.794-10.452 1.524-16.616a9.67 9.67 0 00-2.277-3.333c-.603-.523-1.22-1.014-1.77-1.583-.278-.115-.434-.109-.323.145.586 1.328 2.858 7.129.359 16.823-.713 2.765.344 10.37 3.41 7.402.864-.837 2.17-1.764 3.319-2.776-.13.028-2.22 1.784-4.241-.061z" fill="#000" fillRule="nonzero"/><path d="M24.125 2.095c-3.888 1.465-1.575 3.946-7.67 9.528-2.361 2.164.71 6.493 1.702 9.223 1.458 4.01 5.737-2.366 6.306-5.164 1.995-9.81 6.724-14.366 7.832-15.304a24.566 24.566 0 00-8.17 1.717z" fill="#452D22" fillRule="nonzero"/><path d="M20.228 18.698c2.801-.827 1.164-11.06 5.903-15.607a9.67 9.67 0 013.506-2.001c.77-.207 1.54-.378 2.283-.65.3.02.439.094.227.273-1.107.938-5.689 5.16-7.684 14.97-.57 2.797-4.848 9.174-6.306 5.163-.411-1.131-1.179-2.537-1.77-3.949.105.082 1.216 2.576 3.84 1.801z" fill="#000" fillRule="nonzero"/><path d="M45.26 9.728c.18 2.086-2.197 9.951-3.774 11.985-1.573 2.028-3.702 2.494-6.302 5.62-1.07 1.287-2.784-3.368-5.757-4.064-3.648-.854-4.549-1.091-4.894-2.583-.373-1.615-.95 2.81-1.564 1.259-.725-1.833-1.465-3.392-1.819-5.348-.613-3.39 1.706-10.433 2.448-12 1.06-2.24 4.578-4.258 7.442-4.23 1.393.013 3-.173 4.636.156 1.637.328 3.305 1.17 5.086 2.084 2.186 1.122 4.317 5.034 4.497 7.12z" fill="#845636" fillRule="nonzero"/><path d="M23.64 13.154c.888-.987 5.62-4.242 5.917-4.476a12.31 12.31 0 00.005-2.148c-.134-1.02-.443-2.647-1.556-2.48-.719.11-3.789 1.234-4.808 4.168-.192.552.176 1.554.354 2.035a4.87 4.87 0 01.088 2.9zM35.85 7.979c.666-.835 1.686-2.369 2.903-1.664.787.455 3.992 1.987 3.695 6.34-.066.975-.983 1.286-1.431 1.622a3.97 3.97 0 00-1.578 3.607c-2.484-.572-6.55-2.724-5.559-6.424a10.102 10.102 0 011.97-3.481z" fill="#33151D" fillRule="nonzero" opacity=".2"/><path d="M24.902 7.019c.558.248.725.742 1.12 1.256.437.572.883 1.062 1.612.959.166-.024 1.532-.632 1.535-.62-.289-.98-.034-2.425-1.188-2.959-.754-.348-1.978.67-3.079 1.364z" fill="#452D22" fillRule="nonzero"/><path d="M26.945 6.247a1.433 1.433 0 00-.362 2.31c.382.4.973.522 1.481.303a1.433 1.433 0 00.362-2.31 1.322 1.322 0 00-1.48-.303z" fill="#080000" fillRule="nonzero"/><path d="M28.046 6.954a.364.364 0 00-.096.608.335.335 0 00.345.071.364.364 0 00.096-.608.335.335 0 00-.345-.07z" fill="#FFF" fillRule="nonzero"/><path d="M38.568 17.136c-1.672-.029-2.546-.127-4.382-3.093l-5.287-2.613a42.678 42.678 0 01-4.428 1.955c.042.11.044.232.004.344-.331.982-2.327 5.926-1.956 6.91.279.67.476 1.37.586 2.086.159 2.073 1.64 3.192 3.613 3.646 1.973.455 3.795.098 4.844-1.697.055-.094 3.542-.069 4.668-.875 3.04-2.177 4.027-3.8 4.254-4.79.288-1.254-.812-1.854-1.916-1.873z" fill="#452D22" fillRule="nonzero"/><path d="M35.144 23.389a4.796 4.796 0 00-.654-1.606c-.791-.989-1.84.023-2.758.155-.532.076-1.86-.596-2.788-.24a.961.961 0 00-.516.454c-.18.393-.005.962.056 1.366.136.651.143 1.323.02 1.978-.129.42-.29.831-.483 1.227-.075.366-.106.74-.092 1.113.06.62.261 1.218.59 1.748.854 1.316 2.517 2.02 4.031 2.074a4.138 4.138 0 002.563-.843c1.152-.83 1.676-2.555 1.411-3.991-.197-1.069-1.033-1.84-1.38-3.435z" fill="#E3787C" fillRule="nonzero"/><path d="M32.479 28.823c.024.208.059.42.095.633.165-1.075.235-2.162.21-3.25-.051-1.49-.057-3.986 1.958-3.901.015 0 .03.003.046.004a2.214 2.214 0 00-.296-.513c-.788-.991-1.838.018-2.757.147-.533.075-1.86-.6-2.788-.245a.96.96 0 00-.517.452 1.321 1.321 0 00-.06.712c1.481-.317 3.075.995 3.584 2.615.278 1.097.454 2.217.525 3.346z" fill="#B54A4E" fillRule="nonzero"/><path d="M37.865 18.215c-.436-.166-.67 3.507-4.597 4.835l-6.696-4.675c-.944-1.283-2.102 1.229-2.371-.119-.069-.34-.238-2.413-.926-1.907-1.76 1.294-1.597 2.162-.373 5.153.715.664 2.229.425 2.884.298 2.996 2.246 5.477 2.965 7.652 2.285 2.616-1.23 5.954-5.29 4.427-5.87z" fill="#000" fillRule="nonzero"/><path d="M34.65 14.69c-1.076-1.662-2.351-2.476-5.002-3.24-1.962-.566-3.31-.61-4.501.4-.96.815-3.377 2.414-3.926 3.558-.92 2.003-.402 4.356 2.04 5.441.938.417 2.79-.034 2.79-.034s1.333 1.482 5.221 2.544c2.205.603 3.967-1.28 4.851-2.265.285-1.302-.396-4.743-1.473-6.404z" fill="#452D22" fillRule="nonzero"/><path d="M28.83 17.484a20.154 20.154 0 00-2.449-.828c-.522-.153-1.049-.299-1.582-.41-.125-.026-.55-.108-.75-.134.007 1.265-.318 3.832-1.442 4.388.21.133.428.25.654.35.938.416 2.79-.035 2.79-.035s1.333 1.482 5.221 2.544c.127.035.256.063.386.084-1.917-1.406-3.332-3.505-2.828-5.96z" fill="#000" fillRule="nonzero" opacity=".3"/><path d="M41.396 10.041c-.753.092-1.138.6-1.812 1.078-.679.48-1.143.686-2.012.423-.601-.183-1.7-1.11-1.707-1.1.531-.96.352-2.111 1.918-2.437.801-.16 1.63.1 2.195.689.391.528.87.984 1.418 1.347z" fill="#452D22" fillRule="nonzero"/><path d="M39.055 8.72c.95.631.826 1.851-.241 2.37a1.979 1.979 0 01-1.893-.107c-.952-.632-.827-1.854.241-2.371a1.978 1.978 0 011.893.107z" fill="#080000" fillRule="nonzero"/><path d="M38.943 9.157a.338.338 0 01-.063.623.503.503 0 01-.441-.023.338.338 0 01.063-.625.504.504 0 01.441.025z" fill="#FFF" fillRule="nonzero"/><path d="M30.875 10.224a1.26 1.26 0 00-.325-.22c.04-.006.08-.014.12-.024.297-.062.556-.242.716-.5.143-.335.164-.711.057-1.06-.146-.94.613-2.586.613-2.586s-1.173 1.3-1.358 1.865c-.203.623.089.638-.138 1.15-.298.673-1.201.13-1.369.863a.866.866 0 00.2.727c.106.127.911.526.607.661-.208.093-1.243-.788-3.747.12-.586.212 1.475 1.394 1.956.992.821-.687 1.762.792 2.786-.298a1.277 1.277 0 00-.118-1.69z" fill="#452D22" fillRule="nonzero"/><path d="M30.842 17.14c.305-1.17-1.259-2.59-3.492-3.17-2.232-.581-4.29-.103-4.594 1.068-.304 1.17 1.652 4.267 3.112 4.688 1.516.438 4.67-1.415 4.974-2.586z" fill="#000" fillRule="nonzero"/><ellipse fill="#FFF" fillRule="nonzero" opacity=".5" transform="rotate(-60.941 28.091 15.87)" cx="28.091" cy="15.869" rx="1" ry="1.367"/></g></g><path d="M75.839 63.632c.007-.039-2.524 2.646-2.448.52.076-2.127 4.15-4.015 5.31-1.448.473 1.013 1.447 2.928 1.477 4.268.045 2.13-3.11 4.401-5.725 4.6-2.614.197-6.044-2.52-4.352-3.402 1.693-.88 4.963-2.566 5.738-4.019v-.52z" fill="#CF916C" mask="url(#b)"/></g></svg>
