<svg version="1.1" id="Layer_1" xmlns="http://www.w3.org/2000/svg" x="0" y="0" viewBox="0 0 103 84" xml:space="preserve" enable-background="new 0 0 103 84"><style>.st2{fillRule:evenodd;clip-rule:evenodd;fill:#fff}.st4{fill:#009972}.st5{fill:#00bf8f}.st6{fill:#cf916c}.st7{fill:#19100e}.st8{opacity:.2;fill:#231f20;enable-background:new}.st9{fill:#010101}.st10{fill:#7b5533}.st11{fill:#fff}.st12{fill:#281a15}</style><g id="FINAL-MOBILE"><g id="mobile-top-nav-v8-expanded" transform="translate(-28 -317)"><g id="PCG" transform="translate(28 294)"><g id="one-time" transform="translate(0 23)"><g id="Mask" transform="matrix(-1 0 0 1 103 0)"><path id="path-1_1_" d="M55.3 83.3c-12.2.2-28.9-3.3-39.4-11.6C7.6 64.5.4 51.4.4 41.2.4 18.3 27.5.3 50.8.3 70 .3 85.4 12.6 94.7 23c7.7 8.6 8.9 18.6 5.9 26-7.4 18.9-25.3 34.1-45.3 34.3z" fillRule="evenodd" clip-rule="evenodd" fill="#ededed"/></g><defs><filter id="Adobe_OpacityMaskFilter" filterUnits="userSpaceOnUse" x="5.7" y="5.1" width="81.6" height="135.9"><feColorMatrix values="1 0 0 0 0 0 1 0 0 0 0 0 1 0 0 0 0 0 1 0"/></filter></defs><mask maskUnits="userSpaceOnUse" x="5.7" y="5.1" width="81.6" height="135.9" id="mask-2_1_"><g filter="url(#Adobe_OpacityMaskFilter)"><path id="path-1_2_" class="st2" d="M55.5 83.4c12.9 0 23.6-6.6 33.9-15.6 8.2-7.2 17.4-15.6 17.4-25.8 0-22.9-28-41.6-51.2-41.6-19.3 0-34 10.2-41.4 22-3.9 6.3-10.4 19-10.4 27-.1 23 28.4 34 51.7 34z"/></g></mask><g id="male-walker" mask="url(#mask-2_1_)"><g transform="translate(2 5)"><path id="Path" class="st4" d="M85.3 86.7S79.5 57 75.6 56.3c-.5-.1-1.3-.3-2.3-.5.6 1.4.9 2.9 1 4.4 1 9.5-.5 18.9 1.9 28.1l3-.5 6.1-1.1z"/><path id="Path_1_" class="st4" d="M29.8 68.2c-.7 3-1.4 6-2.3 8.9 0 2.8-.1 5.5-.2 8.1 0 0 .8 2.4 1.8 6.3 4.3-7.5 6.6-16.3.7-23.3z"/><path id="Path_2_" class="st5" d="M76.2 89.1v-.8s-1-18.5-1.9-28.1c-.1-1.5-.4-3-1-4.4-1.1-.3-2.5-.7-3.9-1.1-.4-.1-.8-.3-1.3-.4-2.3 1.2-9.1 4.7-16.2 4.9-5.6-1.3-11.7-2.4-15.1-7.1-.4.1-.7.2-1.1.3-1.1.3-2.3.7-3.6 1.1-2.5.7-5.2 1.6-7.8 2.4 2.6 6.3 3.1 14.1 3.1 21.4.9-2.9 1.7-5.9 2.3-8.9 5.9 6.9 3.6 15.8-.6 23.3 1.9 7.2 3 14.6 3.4 22 5.6 1.8 13.6 3.1 11.3 8.6-2 4.7-6.5 6.4-11.7 7.1-.2 3-.3 5.3-.3 5.3s29.8 3.5 46.2 0l-1.8-45.6z"/><path id="Path_3_" class="st4" d="M52.8 50.1l-7.8.5s-5.1.7-8.1 1.4c3.4 4.7 10.3 7.7 15.1 7.7 10 0 13.9-4.3 16.2-5.5-1.1-.3-2.2-.7-3.4-1-5.8-1.5-12-3.1-12-3.1z"/><path id="Path_4_" class="st6" d="M13.1 77.1s-10.3 24-9.4 26.4 17.8 15.3 23.4 16.4c0 0 3.3 4.6 8.1 5.5s7.2-4 7.2-4 .7.8 2.4-1.3c1-1.3-2.6-4.3-4.2-6-1.6-1.7-5.9-5.6-10-2 0 0-5.5-2-7.5-5.3s-3.6-6.2-6.3-8.4c0 0 4.5-2.9 8.6-14.2l-12.3-7.1z"/><path id="Path_5_" class="st5" d="M30.9 53.9c-4.5.9-8.4 1.7-9.3 2.3-2.1 1.4-11.1 21.2-11.1 21.2s9.7 10.3 18.6 9.8l1.1-3.6c1.5-9.3 3.2-20.6.7-29.7z"/><path id="Path_6_" class="st7" d="M39.2 11.4s-.4-2.5 3.2-3.4S55 6.4 57.8 7.5c2.8 1.1 5.4 6.1 5.5 7.1C50.2 9.9 43.7 16 43.7 16l-2.8 2.7-1.7 11-.9-1.3c-.1-.1-3.6-16.7.9-17z"/><path id="Path_7_" class="st6" d="M65.1 28.7c.7-.5 1.5.3 1.9 1.4-.5 3-3.4 6.4-5.5 4.7 0-.3 0-.6.1-.9.9-2.2 1.8-4.2 3.5-5.2z"/><path id="Path_8_" class="st8" d="M65.1 28.7c.7-.5 1.5.3 1.9 1.4-.5 3-3.4 6.4-5.5 4.7 0-.3 0-.6.1-.9.9-2.2 1.8-4.2 3.5-5.2z"/><path id="Path_9_" class="st6" d="M65.1 28.7c-1.7 1-2.6 3.1-3.5 5.2.1-1.8.6-3.5 1.2-5.1 0 0 1.4-4.5 3.7-1.7.5.8.7 1.9.5 2.9-.4-1.1-1.2-1.9-1.9-1.3z"/><path id="Path_10_" class="st7" d="M61.3 15.6s1.2 3.3 2.5 3.8c0 0 1.3 8-.5 13.1.8-2.1 1.4-4.3 1.7-6.5 1.3-10.3-.5-12.3-.5-12.3-1.1.4-2.2 1.1-3.2 1.9z"/><path id="Path_11_" class="st6" d="M41.6 41.2v12.4c6.4 5.1 12.9 4.2 17.3 1.5l-.4-11.8-16.9-2.1z"/><path id="Path_12_" class="st8" d="M41.6 41.3s-.1 2.2 0 5.1c4.9 3.7 11 5.7 17.2 5.6l-.3-8.6-16.9-2.1z"/><path id="Path_13_" class="st6" d="M64.5 25.7C63 40.4 59.7 43.7 52.1 44S39 37 38.6 27.2C38.2 17.4 39.8 9 50.7 8.5S65.8 12 64.5 25.7z"/><path id="Path_14_" class="st6" d="M52 28.3s13.1-12.1 12.1-.1c-.5 5.6-2.3 12.4-2.3 12.4s-1.7 3.1-6.9 5.7c-1.6.8-3.6.4-5.3.1-5.2-.9-9.1-6.6-9.4-7.3s-.7-3.6-1.1-9c-.2-3.3-.6-6.8-.6-6.8l13.5 5z"/><path id="Path_15_" class="st9" d="M55.9 20.4s1.1-1.7 1.8-1.7c.9.2 1.9.2 2.9.2 0 0 2.1-.1 2.4-.1s1.4.2 1.3 2.9c0 0-.2-1.3-.8-1.3-.6 0-2.5.4-3.3.3-.9-.1-3.3-.3-4.3-.3z"/><path id="Path_16_" class="st9" d="M51.9 19.9S50.8 18 50.4 18c-.6.1-1.2.2-1.8.4-.3 0-4.3-.4-4.8-.3-.6.1-1.8 1.6-2 2.5.5-.4 1.2-.7 1.8-.8.9-.1 4.9.5 5.5.5.5-.1 2.8-.4 2.8-.4z"/><path id="Path_17_" class="st10" d="M44.1 24.9s0-.1 0 0c-.1-.1-.1 0-.1 0 .3-.7 1.8-1.5 3-1.6 1.7-.1 2.9.7 3.3 1.4-.6-.7-1.5-1.2-2.5-1.2-1.3-.1-2.7.4-3.6 1.4 0-.1 0 0-.1 0z"/><path id="Path_18_" class="st11" d="M47.1 24.2c-1.6-.1-3 .6-3.2 1.5v.2c0 .3 0 .6.2.8.4.7 1.4 1.3 2.7 1.4 1.4.1 2.6-.4 3.1-1.2.1-.1.1-.2.1-.3 0-.1.1-.2.1-.3 0-1-1.3-2-3-2.1z"/><circle id="Oval" class="st12" cx="46.2" cy="25.7" r="1.8"/><circle id="Oval_1_" class="st9" cx="46.2" cy="25.6" r="1.2"/><circle id="Oval_2_" class="st11" cx="45.7" cy="25.1" r=".5"/><path id="Path_19_" class="st9" d="M45.9 23.7c3.8-.5 4.1 2.4 4.1 2.4s-.5-2-3.3-1.9c-2.8.1-2.9 2-2.9 2s-.4-2.1 2.1-2.5z"/><path id="Path_20_" class="st6" d="M50 26.4c-1.1.4-2.3.6-3.5.6-1.9 0-2.6-.6-2.6-.6l-1.1.5s-.5 1.1 1.6 1.6 6-.6 6.3-1-.7-1.1-.7-1.1z"/><path id="Path_21_" class="st10" d="M62.4 26c.1-.1.1 0 .1 0-.2-.7-1.6-1.7-2.8-1.9-1.7-.3-3 .3-3.5 1 .7-.6 1.6-1 2.6-.9 1.4 0 2.6.7 3.4 1.8.1-.1.1 0 .2 0z"/><path id="Path_22_" class="st11" d="M59.5 24.9c1.6.1 2.9.9 3 1.9v.2c0 .3-.1.6-.3.8-.5.7-1.6 1.1-2.8 1.1-1.4-.1-2.5-.7-2.9-1.5 0-.1-.1-.2-.1-.3v-.3c0-1.1 1.4-1.9 3.1-1.9z"/><circle id="Oval_3_" class="st12" cx="58.8" cy="26.5" r="1.8"/><circle id="Oval_4_" class="st9" cx="58.7" cy="26.4" r="1.2"/><circle id="Oval_5_" class="st11" cx="58.2" cy="26" r=".5"/><path id="Path_23_" class="st6" d="M56.4 26.8c1.1.5 2.3.9 3.4 1 1.9.2 2.6-.3 2.6-.3l1 .6s.4 1.1-1.8 1.4c-2.2.2-5.8-1.3-6.1-1.7-.2-.4.9-1 .9-1z"/><path id="Path_24_" class="st9" d="M60.8 24.6c-3.7-1-4.3 1.9-4.3 1.9s.7-1.9 3.5-1.5c2.8.4 2.6 2.4 2.6 2.4s.6-2.1-1.8-2.8z"/><path id="Path_25_" class="st8" d="M52.8 36.5c-.6.1-3-2.2-3.1-2.5s3.6-.4 3.6-.4 2.4.4 2.4.6c0 .2-2.2 2.3-2.9 2.3z"/><g id="Group" transform="translate(41.41 36.183)"><g id="Path_26_"><path id="path-3_1_" d="M3.7.1s2.8 1.4 7.8 1.6c1 0 4.9 0 6.3-.4 0 0-1.9 1.9-2.3 2.1-.3.2-.9.8-4.3.7C6.9 4 4.9 2.5 3.7.1z" fill="#51272f"/></g><defs><filter id="Adobe_OpacityMaskFilter_1_" filterUnits="userSpaceOnUse" x="4.7" y=".5" width="12" height="3.9"><feColorMatrix values="1 0 0 0 0 0 1 0 0 0 0 0 1 0 0 0 0 0 1 0"/></filter></defs><mask maskUnits="userSpaceOnUse" x="4.7" y=".5" width="12" height="3.9" id="mask-4_1_"><g filter="url(#Adobe_OpacityMaskFilter_1_)"><path id="path-3_2_" class="st2" d="M3.7.1s2.8 1.4 7.8 1.6c1 0 4.9 0 6.3-.4 0 0-1.9 1.9-2.3 2.1-.3.2-.9.8-4.3.7C6.9 4 4.9 2.5 3.7.1z"/></g></mask><path id="Path_27_" d="M16.7 1.3L4.7.4s.5 2.2.6 2.6c3.4 1.3 7.2 1.6 10.8.8l.6-2.5z" mask="url(#mask-4_1_)" fill="#fff"/></g><path id="Path_28_" class="st8" d="M47.6 40.2s4.5 3 8.7.3c0 0-3.8 4.4-8.7-.3z"/><path id="Path_29_" class="st7" d="M43.3 16.5s-3.6 3.4-2.2 8.1c1 3.5-.5 3.5 1 7.6 0 0-3.5-1.9-3.9-7.3C38 22.1 39.6 12 39.6 12c1.4 1.3 2.7 2.8 3.7 4.5z"/><path id="Path_30_" class="st6" d="M37.3 27.3c-.7-.8-2.1-.4-3.1.4-.5 3.1 2.1 7.5 5.5 6.9.1-.3.2-.6.3-.8-.3-2.4-.8-4.8-2.7-6.5z"/><path id="Path_31_" class="st8" d="M37.3 27.3c-.7-.8-2.1-.4-3.1.4-.5 3.1 2.1 7.5 5.5 6.9.1-.3.2-.6.3-.8-.3-2.4-.8-4.8-2.7-6.5z"/><path id="Path_32_" class="st6" d="M37.3 27.3c1.8 1.7 2.3 4.1 2.7 6.4.5-1.7.6-3.5.3-5.3 0 0-.1-4.9-4.3-3.2-1 .4-1.7 1.4-1.9 2.5 1.1-.8 2.5-1.2 3.2-.4z"/><path id="Shape" class="st11" d="M68.6 77c0 .3-.1.6-.4.7-.3.1-.5.2-.8.2-.3 0-.6 0-.9-.2-.3-.1-.5-.4-.6-.7 0-.3.1-.6.4-.7.3-.1.5-.2.8-.2.3 0 .6.1.9.2.3.1.5.4.6.7zm-1.3-7.8l.7 6.2c0 .1 0 .1-.1.1h-2-.1v-.1l-.7-6.2c0-.1 0-.1.1-.1h2c.1 0 .1 0 .1.1z"/><path id="Path_33_" class="st11" d="M52.2 77.7s0 .1 0 0l-.1.1-2.3.2c-.1 0-.1 0-.2-.1L48 74.4l-.7 3.5c0 .1-.1.1-.1.1h-2.3c-.1 0-.1 0-.1-.1L43 69.8c0-.1 0-.1.1-.1h2v.1l1 5.1.4-4.3v-.1H48.2c.1 0 .1 0 .2.1l1.5 4.3-.3-5.2c0-.1 0-.1.1-.1l1.9.1h.1v.1l.5 7.9z"/><path id="Shape_1_" class="st11" d="M58.2 73.5c0 .3.1 1.6.3 4v.4c0 .1 0 .1-.1.1h-1.5-.1l-.1-.1v-.6c-.5.2-1 .3-1.5.3-.6 0-1.1-.1-1.7-.4-.5-.3-.8-.8-.9-1.4-.1-.7.3-1.4 1-1.7.7-.3 1.4-.5 2.1-.5h.7v-.3c0-.2-.1-.4-.3-.6-.2-.1-.4-.2-.6-.2-.2 0-.5.1-.6.3-.1.1-.1.2-.2.3l-1.7.5h-.1l-.1-.1c.1-1.2 1.2-2.1 2.4-2.1 1.8-.2 2.8.6 3 2.1zM56.5 75h-.4c-.8 0-1.2.3-1.1.7.1.4.4.6 1 .6.2 0 .4 0 .6-.1l-.1-1.2z"/><path id="Shape_2_" class="st11" d="M64.3 70.9c.3 1.8.5 3.6.6 5.2.1.8.1 1.2.1 1.3 0 .4.1.9 0 1.3 0 .7-.3 1.3-.8 1.8-.5.4-1.2.7-1.8.7-.4 0-.7 0-1.1-.1-.1 0-.1-.1-.1-.1l-.2-1.8c0-.1 0-.1.1-.2h.6c.9 0 1.3-.4 1.3-1.1l-.1-.9c-.3.1-.6.2-.9.2-.8 0-1.6-.2-2.2-.8-.6-.5-1-1.3-1.1-2.1-.2-.8.1-1.6.7-2.2.6-.5 1.4-.8 2.2-.8h.6l-.1-.4c0-.1 0-.1.1-.1h1.9c.1 0 .2 0 .2.1zm-1.6 4.6l-.3-2c-.9 0-1.3.4-1.2 1.2.1.6.5.9 1.2.9.1-.1.2-.1.3-.1z"/><path id="Path_34_" class="st7" d="M39 11.8c0-2.1 1.2-4.1 3.2-4.9 1.3-.6 2.5-1.5 3.6-2.5l-.1 1.4s.9-1.6 1.8-1.9c1.2-.5 2.3-.7 3-1.2.7-.5 1.2-1.1 1.7-1.8 0 0 .3 1.7-.3 2.6 1-.9 1.8-2.1 2.3-3.4 0 0 1.6.7 1.9 3l1-2s1.4 2.4 1.6 3.5l1.1-1.8s2.2 2.1 1.9 4.9L63.2 6s1.2 2.9 1 4.9l1-1.1s.5 2.5-.3 4.4c-.6 1.5-1 1-1 1S62.4 12 60 12.7c-2.7.8-7.9.8-11.8.2-4.1-.6-4.5 2.5-4.5 2.5"/></g></g></g></g></g></g></svg>
